<svg width="165" height="32" viewBox="0 0 165 32" fill="none" xmlns="http://www.w3.org/2000/svg">
<path d="M9.372 24.48C7.644 24.48 6.13467 24.0907 4.844 23.312C3.55333 22.5333 2.55067 21.4613 1.836 20.096C1.132 18.72 0.78 17.1413 0.78 15.36C0.78 13.5467 1.14267 11.9573 1.868 10.592C2.59333 9.22667 3.60133 8.16 4.892 7.392C6.18267 6.624 7.676 6.24 9.372 6.24C11.1107 6.24 12.6253 6.62933 13.916 7.408C15.2067 8.18667 16.2093 9.264 16.924 10.64C17.6387 12.0053 17.996 13.5787 17.996 15.36C17.996 17.152 17.6333 18.736 16.908 20.112C16.1933 21.4773 15.1907 22.5493 13.9 23.328C12.6093 24.096 11.1 24.48 9.372 24.48ZM9.372 20.864C10.908 20.864 12.0493 20.352 12.796 19.328C13.5427 18.304 13.916 16.9813 13.916 15.36C13.916 13.6853 13.5373 12.352 12.78 11.36C12.0227 10.3573 10.8867 9.856 9.372 9.856C8.33733 9.856 7.484 10.0907 6.812 10.56C6.15067 11.0187 5.66 11.664 5.34 12.496C5.02 13.3173 4.86 14.272 4.86 15.36C4.86 17.0347 5.23867 18.3733 5.996 19.376C6.764 20.368 7.88933 20.864 9.372 20.864ZM28.7053 24.512C27.0626 24.4907 25.6653 24.1227 24.5133 23.408C23.3613 22.6933 22.4599 21.6853 21.8093 20.384C21.1586 19.0827 20.7639 17.5467 20.6253 15.776C20.5613 14.8693 20.5559 13.856 20.6093 12.736C20.6626 11.616 20.7799 10.5227 20.9613 9.456C21.1426 8.38933 21.3933 7.48267 21.7133 6.736C22.0439 5.98933 22.4759 5.30133 23.0093 4.672C23.5426 4.032 24.1186 3.49867 24.7373 3.072C25.4413 2.58133 26.2039 2.20267 27.0253 1.936C27.8573 1.66933 28.7266 1.46667 29.6333 1.328C30.5399 1.17867 31.4733 1.04533 32.4333 0.927999C33.3933 0.810666 34.3426 0.661332 35.2812 0.48L35.6333 3.888C35.0359 4.03733 34.3426 4.15467 33.5533 4.24C32.7746 4.31467 31.9639 4.4 31.1213 4.496C30.2893 4.592 29.4946 4.73067 28.7373 4.912C27.9799 5.09333 27.3239 5.36 26.7693 5.712C26.0013 6.18133 25.4146 6.85333 25.0093 7.728C24.6039 8.60267 24.3639 9.52533 24.2893 10.496C24.9506 9.51467 25.7719 8.82667 26.7533 8.432C27.7453 8.02667 28.7479 7.824 29.7613 7.824C31.2973 7.824 32.6146 8.18667 33.7133 8.912C34.8226 9.63733 35.6706 10.624 36.2573 11.872C36.8546 13.1093 37.1533 14.4907 37.1533 16.016C37.1533 17.7227 36.7959 19.216 36.0813 20.496C35.3666 21.776 34.3746 22.768 33.1053 23.472C31.8359 24.176 30.3693 24.5227 28.7053 24.512ZM28.8973 20.896C30.2839 20.896 31.3293 20.4693 32.0333 19.616C32.7479 18.752 33.1053 17.6053 33.1053 16.176C33.1053 14.7147 32.7373 13.5627 32.0013 12.72C31.2759 11.8773 30.2413 11.456 28.8973 11.456C27.5319 11.456 26.4919 11.8773 25.7773 12.72C25.0626 13.5627 24.7053 14.7147 24.7053 16.176C24.7053 17.6693 25.0679 18.832 25.7933 19.664C26.5186 20.4853 27.5533 20.896 28.8973 20.896ZM48.9815 24.48C47.2962 24.48 45.8828 24.08 44.7415 23.28C43.6002 22.48 42.7415 21.392 42.1655 20.016C41.5895 18.6293 41.3015 17.0773 41.3015 15.36C41.3015 13.6213 41.5895 12.064 42.1655 10.688C42.7415 9.312 43.5842 8.22933 44.6935 7.44C45.8135 6.64 47.1948 6.24 48.8375 6.24C50.4695 6.24 51.8828 6.64 53.0775 7.44C54.2828 8.22933 55.2162 9.312 55.8775 10.688C56.5388 12.0533 56.8695 13.6107 56.8695 15.36C56.8695 17.088 56.5442 18.64 55.8935 20.016C55.2428 21.392 54.3255 22.48 53.1415 23.28C51.9575 24.08 50.5708 24.48 48.9815 24.48ZM40.6455 31.68V6.72H44.0535V18.848H44.5335V31.68H40.6455ZM48.3895 21.024C49.3922 21.024 50.2188 20.7733 50.8695 20.272C51.5202 19.7707 52.0002 19.0933 52.3095 18.24C52.6295 17.376 52.7895 16.416 52.7895 15.36C52.7895 14.3147 52.6295 13.3653 52.3095 12.512C51.9895 11.648 51.4935 10.9653 50.8215 10.464C50.1495 9.952 49.2962 9.696 48.2615 9.696C47.2802 9.696 46.4802 9.936 45.8615 10.416C45.2428 10.8853 44.7842 11.5467 44.4855 12.4C44.1975 13.2427 44.0535 14.2293 44.0535 15.36C44.0535 16.48 44.1975 17.4667 44.4855 18.32C44.7842 19.1733 45.2482 19.84 45.8775 20.32C46.5175 20.7893 47.3548 21.024 48.3895 21.024ZM65.2283 24.48C63.9803 24.48 62.9243 24.2453 62.0603 23.776C61.1963 23.296 60.5403 22.6613 60.0923 21.872C59.6549 21.0827 59.4363 20.2133 59.4363 19.264C59.4363 18.432 59.5749 17.6853 59.8523 17.024C60.1296 16.352 60.5563 15.776 61.1323 15.296C61.7083 14.8053 62.4549 14.4053 63.3723 14.096C64.0656 13.872 64.8763 13.6693 65.8043 13.488C66.7429 13.3067 67.7563 13.1413 68.8443 12.992C69.9429 12.832 71.0896 12.6613 72.2843 12.48L70.9083 13.264C70.9189 12.0693 70.6523 11.1893 70.1083 10.624C69.5643 10.0587 68.6469 9.776 67.3563 9.776C66.5776 9.776 65.8256 9.95733 65.1003 10.32C64.3749 10.6827 63.8683 11.3067 63.5803 12.192L60.0603 11.088C60.4869 9.62667 61.2976 8.45333 62.4923 7.568C63.6976 6.68267 65.3189 6.24 67.3563 6.24C68.8923 6.24 70.2416 6.49067 71.4043 6.992C72.5776 7.49333 73.4469 8.31467 74.0123 9.456C74.3216 10.064 74.5083 10.688 74.5723 11.328C74.6363 11.9573 74.6683 12.6453 74.6683 13.392V24H71.2923V20.256L71.8523 20.864C71.0736 22.112 70.1616 23.0293 69.1163 23.616C68.0816 24.192 66.7856 24.48 65.2283 24.48ZM65.9963 21.408C66.8709 21.408 67.6176 21.2533 68.2363 20.944C68.8549 20.6347 69.3456 20.256 69.7083 19.808C70.0816 19.36 70.3323 18.9387 70.4603 18.544C70.6629 18.0533 70.7749 17.4933 70.7963 16.864C70.8283 16.224 70.8443 15.7067 70.8443 15.312L72.0283 15.664C70.8656 15.8453 69.8683 16.0053 69.0363 16.144C68.2043 16.2827 67.4896 16.416 66.8923 16.544C66.2949 16.6613 65.7669 16.7947 65.3083 16.944C64.8603 17.104 64.4816 17.2907 64.1723 17.504C63.8629 17.7173 63.6229 17.9627 63.4523 18.24C63.2923 18.5173 63.2123 18.8427 63.2123 19.216C63.2123 19.6427 63.3189 20.0213 63.5323 20.352C63.7456 20.672 64.0549 20.928 64.4603 21.12C64.8763 21.312 65.3883 21.408 65.9963 21.408ZM86.0178 24.512C84.3751 24.4907 82.9778 24.1227 81.8258 23.408C80.6738 22.6933 79.7724 21.6853 79.1218 20.384C78.4711 19.0827 78.0764 17.5467 77.9378 15.776C77.8738 14.8693 77.8684 13.856 77.9218 12.736C77.9751 11.616 78.0924 10.5227 78.2738 9.456C78.4551 8.38933 78.7058 7.48267 79.0258 6.736C79.3564 5.98933 79.7884 5.30133 80.3218 4.672C80.8551 4.032 81.4311 3.49867 82.0498 3.072C82.7538 2.58133 83.5164 2.20267 84.3378 1.936C85.1698 1.66933 86.0391 1.46667 86.9458 1.328C87.8524 1.17867 88.7858 1.04533 89.7458 0.927999C90.7058 0.810666 91.6551 0.661332 92.5938 0.48L92.9458 3.888C92.3484 4.03733 91.6551 4.15467 90.8658 4.24C90.0871 4.31467 89.2764 4.4 88.4338 4.496C87.6018 4.592 86.8071 4.73067 86.0498 4.912C85.2924 5.09333 84.6364 5.36 84.0818 5.712C83.3138 6.18133 82.7271 6.85333 82.3218 7.728C81.9164 8.60267 81.6764 9.52533 81.6018 10.496C82.2631 9.51467 83.0844 8.82667 84.0658 8.432C85.0578 8.02667 86.0604 7.824 87.0738 7.824C88.6098 7.824 89.9271 8.18667 91.0258 8.912C92.1351 9.63733 92.9831 10.624 93.5698 11.872C94.1671 13.1093 94.4658 14.4907 94.4658 16.016C94.4658 17.7227 94.1084 19.216 93.3938 20.496C92.6791 21.776 91.6871 22.768 90.4178 23.472C89.1484 24.176 87.6818 24.5227 86.0178 24.512ZM86.2098 20.896C87.5964 20.896 88.6418 20.4693 89.3458 19.616C90.0604 18.752 90.4178 17.6053 90.4178 16.176C90.4178 14.7147 90.0498 13.5627 89.3138 12.72C88.5884 11.8773 87.5538 11.456 86.2098 11.456C84.8444 11.456 83.8044 11.8773 83.0898 12.72C82.3751 13.5627 82.0178 14.7147 82.0178 16.176C82.0178 17.6693 82.3804 18.832 83.1058 19.664C83.8311 20.4853 84.8658 20.896 86.2098 20.896ZM105.622 24.48C103.894 24.48 102.385 24.0907 101.094 23.312C99.8033 22.5333 98.8007 21.4613 98.086 20.096C97.382 18.72 97.03 17.1413 97.03 15.36C97.03 13.5467 97.3927 11.9573 98.118 10.592C98.8433 9.22667 99.8513 8.16 101.142 7.392C102.433 6.624 103.926 6.24 105.622 6.24C107.361 6.24 108.875 6.62933 110.166 7.408C111.457 8.18667 112.459 9.264 113.174 10.64C113.889 12.0053 114.246 13.5787 114.246 15.36C114.246 17.152 113.883 18.736 113.158 20.112C112.443 21.4773 111.441 22.5493 110.15 23.328C108.859 24.096 107.35 24.48 105.622 24.48ZM105.622 20.864C107.158 20.864 108.299 20.352 109.046 19.328C109.793 18.304 110.166 16.9813 110.166 15.36C110.166 13.6853 109.787 12.352 109.03 11.36C108.273 10.3573 107.137 9.856 105.622 9.856C104.587 9.856 103.734 10.0907 103.062 10.56C102.401 11.0187 101.91 11.664 101.59 12.496C101.27 13.3173 101.11 14.272 101.11 15.36C101.11 17.0347 101.489 18.3733 102.246 19.376C103.014 20.368 104.139 20.864 105.622 20.864ZM121.764 24V10.144H115.988V6.72H131.396V10.144H125.62V24H121.764Z" fill="#CC5DE8"/>
<path d="M132.505 24V20.048H136.457V24H132.505ZM146.416 24.48C145.168 24.48 144.112 24.2453 143.248 23.776C142.384 23.296 141.728 22.6613 141.28 21.872C140.842 21.0827 140.624 20.2133 140.624 19.264C140.624 18.432 140.762 17.6853 141.04 17.024C141.317 16.352 141.744 15.776 142.32 15.296C142.896 14.8053 143.642 14.4053 144.56 14.096C145.253 13.872 146.064 13.6693 146.992 13.488C147.93 13.3067 148.944 13.1413 150.032 12.992C151.13 12.832 152.277 12.6613 153.472 12.48L152.096 13.264C152.106 12.0693 151.84 11.1893 151.296 10.624C150.752 10.0587 149.834 9.776 148.544 9.776C147.765 9.776 147.013 9.95733 146.288 10.32C145.562 10.6827 145.056 11.3067 144.768 12.192L141.248 11.088C141.674 9.62667 142.485 8.45333 143.68 7.568C144.885 6.68267 146.506 6.24 148.544 6.24C150.08 6.24 151.429 6.49067 152.592 6.992C153.765 7.49333 154.634 8.31467 155.2 9.456C155.509 10.064 155.696 10.688 155.76 11.328C155.824 11.9573 155.856 12.6453 155.856 13.392V24H152.48V20.256L153.04 20.864C152.261 22.112 151.349 23.0293 150.304 23.616C149.269 24.192 147.973 24.48 146.416 24.48ZM147.184 21.408C148.058 21.408 148.805 21.2533 149.424 20.944C150.042 20.6347 150.533 20.256 150.896 19.808C151.269 19.36 151.52 18.9387 151.648 18.544C151.85 18.0533 151.962 17.4933 151.984 16.864C152.016 16.224 152.032 15.7067 152.032 15.312L153.216 15.664C152.053 15.8453 151.056 16.0053 150.224 16.144C149.392 16.2827 148.677 16.416 148.08 16.544C147.482 16.6613 146.954 16.7947 146.496 16.944C146.048 17.104 145.669 17.2907 145.36 17.504C145.05 17.7173 144.81 17.9627 144.64 18.24C144.48 18.5173 144.4 18.8427 144.4 19.216C144.4 19.6427 144.506 20.0213 144.72 20.352C144.933 20.672 145.242 20.928 145.648 21.12C146.064 21.312 146.576 21.408 147.184 21.408ZM160.341 4.096V0.559999H164.197V4.096H160.341ZM160.341 24V6.72H164.197V24H160.341Z" fill="#ABE85D"/>
</svg>
